<svg id="レイヤー_1" data-name="レイヤー 1" xmlns="http://www.w3.org/2000/svg" viewBox="0 0 200 203.67"><defs><style>.cls-1{fill:#f76c71;}.cls-2{fill:#ffcd36;}.cls-3{fill:#06b0c1;}.cls-4{fill:#86ca8e;}.cls-5{fill:#fbab29;}.cls-6{fill:#65c5e9;}.cls-7{fill:#e77961;}.cls-8{fill:#406b95;}</style></defs><title>hire-8</title><polygon class="cls-1" points="47.87 87.55 42.14 101.5 71.78 111.47 47.87 87.55"/><path class="cls-1" d="M8.26,184.21l-6,14.45a1.76,1.76,0,0,0,2.24,2.24l23.91-9.71Z"/><polygon class="cls-1" points="83.24 122.92 39.15 108.47 31.67 126.91 114.38 154.31 83.24 122.92"/><polygon class="cls-1" points="11.24 177.48 39.15 186.7 67.55 174.99 18.72 159.05 11.24 177.48"/><polygon class="cls-1" points="28.93 133.64 21.46 152.07 78.01 170.76 106.41 159.3 28.93 133.64"/><polygon class="cls-2" points="71.78 111.47 42.14 101.5 39.15 108.47 83.24 122.92 71.78 111.47"/><polygon class="cls-2" points="115.63 155.56 114.38 154.31 31.67 126.91 28.93 133.64 106.41 159.3 115.63 155.56"/><polygon class="cls-2" points="18.72 159.05 67.55 174.99 78.01 170.76 21.46 152.07 18.72 159.05"/><polygon class="cls-2" points="8.26 184.21 28.68 190.94 39.15 186.7 11.24 177.48 8.26 184.21"/><path class="cls-2" d="M145.52,61.39l-6-3.49c-.25,0-.25-.25-.25-.5l1.49-7c0-.5-.5-.75-1-.5l-5.23,4.73c-.25.25-.49.25-.49,0l-6-3.48a.55.55,0,0,0-.75.74l2.74,6.48c0,.25,0,.5-.25.5l-5.23,4.73c-.5.25,0,1,.5,1l7-.75c.25,0,.5,0,.5.25l2.74,6.48c.25.5,1,.5,1,0l1.49-7a.54.54,0,0,1,.5-.5l7-.74C146,62.39,146,61.64,145.52,61.39Z"/><path class="cls-3" d="M196.6,53.42c.49-.25,0-1-.5-1l-12.21,1.5c-.25,0-.5,0-.5-.25l-5.23-11.21c-.25-.5-1-.5-1,0l-2.49,11.95a.54.54,0,0,1-.5.5L162,56.41a.53.53,0,0,0-.25,1l10.71,6c.25,0,.25.25.25.5l-2.49,12c0,.5.5.75,1,.5l9-8.22c.25-.25.5-.25.5,0l10.71,6a.55.55,0,0,0,.75-.75l-5.23-11.21v-.5Z"/><path class="cls-1" d="M153.5,25.76,145,17.29c-.25-.24-.25-.49,0-.49l5.48-10.72a.55.55,0,0,0-.75-.74l-11,5.23h-.5L129.83,2.1a.68.68,0,0,0-1,.5l2,12c0,.25,0,.5-.25.5l-10.72,5.48a.54.54,0,0,0,.25,1l12,2a.54.54,0,0,1,.5.5l2,12c0,.5.75.5,1,.25L141,25.52c0-.25.25-.25.5-.25l12,2C153.5,26.76,153.75,26,153.5,25.76Z"/><path class="cls-1" d="M100.68,61.89,93.21,58.4c-.25,0-.25-.25-.25-.5l1-8.22c0-.5-.5-.75-1-.5l-5.48,6.23a.77.77,0,0,1-.5.25l-7.47-3.49a.55.55,0,0,0-.75.75l4,7.22v.5l-5.48,6c-.25.5,0,1,.5,1l8-1.75c.25,0,.5,0,.5.25l4,7.23a.54.54,0,0,0,1-.25l1-8.22a.54.54,0,0,1,.5-.5l8-1.5C101.18,62.88,101.18,62.14,100.68,61.89Z"/><path class="cls-4" d="M136.56,138.12l-5.73-5.73c-.25-.25-.25-.5,0-.5l3.73-7.22a.55.55,0,0,0-.74-.75l-7.23,3.74h-.5l-5.73-5.73a.67.67,0,0,0-1,.5l1.24,8.22c0,.25,0,.5-.25.5l-7.22,3.73a.54.54,0,0,0,.25,1l8.22,1.24a.54.54,0,0,1,.5.5l1.24,8.22c0,.5.75.5,1,.25l3.74-7.22c0-.25.25-.25.49-.25l8.23,1.25C136.81,139.12,137.05,138.37,136.56,138.12Z"/><path class="cls-5" d="M129.83,32.74l-9.22-5.48h-.25c-9.46,31.89-33.13,65.52-39.36,74-.25.25.25.5.25.25,20.18-20.18,46.84-65.77,48.58-68.76Z"/><path class="cls-2" d="M166.2,72.85l-5.23-9s-.25-.25-.25,0c-3,1.5-48.58,28.15-69,48.08-.25.25,0,.5.25.25,8.47-6,42.11-29.64,74-39.36C166.2,73.1,166.2,72.85,166.2,72.85Z"/><circle class="cls-3" cx="148.76" cy="98.51" r="3.24"/><circle class="cls-6" cx="155.24" cy="40.96" r="5.23"/><circle class="cls-6" cx="75.02" cy="86.3" r="4.24"/><circle class="cls-6" cx="112.64" cy="79.33" r="2.49"/><circle class="cls-5" cx="124.1" cy="106.98" r="3.74"/><circle class="cls-7" cx="175.42" cy="92.03" r="6.73"/><ellipse class="cls-8" cx="81.66" cy="121.45" rx="16.86" ry="47.77" transform="translate(-61.96 93.31) rotate(-45)"/></svg>