<svg id="レイヤー_1" data-name="レイヤー 1" xmlns="http://www.w3.org/2000/svg" viewBox="0 0 200 195"><defs><style>.cls-1{fill:#f76c71;}.cls-2{fill:#e85459;}.cls-3{fill:#f15c62;}.cls-4{fill:#d3dce2;}.cls-5{fill:#ebeff2;}.cls-6{fill:#7b8d96;fill-opacity:0.3;}</style></defs><title>hire-2</title><path id="_311537048" data-name=" 311537048" class="cls-1" d="M198,97c0,53.15-43.88,96.25-98,96.25S2,150.12,2,97,45.88.72,100,.72,198,43.81,198,97Z"/><path id="_311537456" data-name=" 311537456" class="cls-2" d="M100,26.15A70.79,70.79,0,1,1,50,46.89a70.57,70.57,0,0,1,50-20.74Zm41.77,29A59.12,59.12,0,1,0,159.08,97a58.86,58.86,0,0,0-17.31-41.8Z"/><path id="_311537360" data-name=" 311537360" class="cls-3" d="M141.77,55.17A59.12,59.12,0,1,0,159.08,97,58.86,58.86,0,0,0,141.77,55.17Z"/><path id="_311537792" data-name=" 311537792" class="cls-4" d="M84.92,90.52c31.53,31.54,41.64,53.82,58,63.25,6.82,3.94,13.65-4.28,10.22-10.22-8.7-15.06-32.51-27.48-63.41-58.38-4.23-4.23,1.32-6.8-1.94-14.46-2.91-6.84-33.52-31.91-34.42-31S75.55,63,73.62,64.88,50.24,43.42,48.7,44.34,71.1,67.4,68.82,69.68,45.28,47.76,44.05,49,65.89,72.6,64,74.48C61.94,76.55,40.33,52.71,39.4,53.64c-1.57,1.57,22.87,29.68,29.06,33.92s11.36-2.14,16.46,3Z"/><path id="_311537768" data-name=" 311537768" class="cls-5" d="M111.8,84C80.26,115.56,54.46,129,46.89,143.65c-3.61,7,4.28,13.65,10.22,10.22C70.78,146,86,120,116.86,89.09c3.6-3.6,14.38,7.63,26.68-4.66C158.92,69,161.31,52.65,154.63,46c-6.23-6.23-23.36-2.62-37.77,11.78-11.54,11.55-2.1,23.31-5.07,26.28Z"/><path id="_311537696" data-name=" 311537696" class="cls-6" d="M154.24,47.11c-7.62-7.61-32.94,2.32-40.34,18.19-5.36,11.48,9.53,25.88,20.54,22.62,15.76-4.67,27.82-32.78,19.8-40.81Z"/></svg>