<svg id="レイヤー_1" data-name="レイヤー 1" xmlns="http://www.w3.org/2000/svg" viewBox="0 0 200 233"><defs><style>.cls-1{fill:#c1ccd3;}.cls-2{fill:#0c5286;}.cls-3{fill:#406b95;}.cls-4{fill:#99abb5;}</style></defs><title>hire-5</title><polygon class="cls-1" points="14 230.95 14 2 151.37 2 188 38.63 188 230.95 14 230.95"/><polyline class="cls-2" points="64.37 34.05 128.47 34.05 128.47 24.89 64.37 24.89"/><polyline class="cls-3" points="36.9 61.53 165.1 61.53 165.1 52.37 36.9 52.37"/><polyline class="cls-3" points="36.9 79.84 165.1 79.84 165.1 70.68 36.9 70.68"/><polyline class="cls-3" points="36.9 98.16 165.1 98.16 165.1 89 36.9 89"/><polyline class="cls-3" points="36.9 116.47 165.1 116.47 165.1 107.32 36.9 107.32"/><polyline class="cls-3" points="36.9 134.79 165.1 134.79 165.1 125.63 36.9 125.63"/><polyline class="cls-3" points="36.9 153.1 128.47 153.1 128.47 143.95 36.9 143.95"/><polygon class="cls-4" points="151.37 2 151.37 38.63 188 38.63 151.37 2"/></svg>