<svg id="レイヤー_1" data-name="レイヤー 1" xmlns="http://www.w3.org/2000/svg" viewBox="0 0 200 237.33"><defs><style>.cls-1{fill:#ffdb52;}.cls-2{fill:#ffcd36;}.cls-3{fill:#ff9c00;}.cls-4{fill:#9eaebc;}.cls-5{fill:#8597a7;}.cls-6{fill:#5b6d80;}.cls-7{fill:#778797;}.cls-8{fill:#ffffbf;}</style></defs><title>hire-1</title><path class="cls-1" d="M64.73,166.78c0-9.95-4.79-17.3-10.64-25.15-7.88-10.56-16-21.9-16-41.4a62.87,62.87,0,0,1,125.73,0c0,19.5-9.13,30.84-17,41.41-5.84,7.84-12,15.19-12,25.14v23.37H64.73Z"/><path class="cls-2" d="M64.73,166.78c0-9.95-4.79-17.3-10.64-25.15a118.36,118.36,0,0,1-8.8-13.52A82.68,82.68,0,0,0,162.66,88.4a63.18,63.18,0,0,1,1.16,11.83c0,19.5-9.12,30.84-17,41.41-5.85,7.84-12,15.19-12,25.14v23.37H64.73Z"/><path class="cls-2" d="M156.91,150.55c-1.23-.88-3-.48-4.45,1s-1.89,3.22-1,4.45l12.15,17.26c.95,1.32,2.77,1.23,4.37-.38l5.82-5.82c1.6-1.6,1.69-3.42.38-4.37l-17.25-12.15Zm19.23-54.18h0c-1.49.25-2.43,1.76-2.43,3.86s.94,3.62,2.43,3.87l20.15,3.61c1.6.25,2.18-1.09,2.18-3.36V96.12c0-2.27-.58-3.62-2.18-3.37l-20.15,3.62ZM105,25.21h0c-.25,1.5-1.76,2.44-3.86,2.44s-3.61-.94-3.86-2.44L93.69,4.62C93.43,3,94.78,2,97.05,2h8.23c2.26,0,3.61,1,3.35,2.62L105,25.21ZM26.18,96.37h0c1.49.25,2.43,1.76,2.43,3.86s-.94,3.62-2.43,3.87L5.11,107.71c-1.6.25-3.1-1.09-3.1-3.36V96.12c0-2.27,1.5-3.62,3.1-3.37l21.07,3.62Zm19.23,54.18h0c1.23-.88,3-.48,4.45,1s1.89,3.22,1,4.45L38.73,173.27c-1,1.32-2.77,1.23-4.37-.38l-5.82-5.82c-1.6-1.61-1.69-3.42-.38-4.37l17.25-12.15Zm5.46-106.1h0c.88,1.24.48,3-1,4.46s-3.22,1.89-4.45,1L28.16,37.77c-1.32-1-1.22-2.77.38-4.37l5.82-5.83c1.6-1.6,3.41-1.69,4.37-.38L50.87,44.45Zm100.58,0h0c-.88,1.24-.48,3,1,4.46s3.22,1.89,4.45,1l17.25-12.15c1.31-1,1.22-2.77-.38-4.37L168,27.57c-1.6-1.6-3.41-1.69-4.37-.38Z"/><path class="cls-3" d="M75.91,109.4c-1.67-5-3.44-10.3-5-15.29a3.7,3.7,0,0,1,5.54-4.23l14,7.81,8.19-7.46a3.69,3.69,0,0,1,5,0l8.19,7.45,14.29-7.94a3.68,3.68,0,0,1,5.29,4.32h0c-1.58,5-3.35,10.36-5,15.34-8,23.86-11.14,37.4-11.31,60.45h-7.38c.18-23.05,3.61-38.67,11.71-62.79.68-2,1.37-4.11,2.1-6.31l-8.24,4.56a3.67,3.67,0,0,1-4.45-.4l-7.67-7-7.67,7h0a3.68,3.68,0,0,1-4.26.49l-8.43-4.69c.72,2.2,1.41,4.35,2.08,6.35,8.08,24.07,11.52,39.75,11.71,62.8H87.21C87,146.81,83.86,133.08,75.91,109.4Z"/><path class="cls-4" d="M134.82,186.69c2.77,1.1,4.62,2.83,4.62,5.93s-1.85,4.82-4.62,5.92v3.84c2.77,1.1,5.31,2.82,5.31,5.92,0,3.53-2.13,5.56-5.44,6.29H67.14c-3.33-.72-6.42-2.75-6.42-6.29,0-3.1,2.16-4.82,4-5.92v-3.84c-1.85-1.1-4.61-2.83-4.61-5.92s2.76-4.83,4.61-5.93v-3.84c-1.85-1.09-3.92-2.73-3.92-5.83,0-3.6,3.28-7.16,6.7-7.16h67.3c3.42,0,5.32,3.56,5.32,7.16,0,3.1-2.54,4.74-5.3,5.83v3.84Z"/><path class="cls-5" d="M134.82,186.69c2.77,1.1,4.62,2.83,4.62,5.93s-1.85,4.82-4.62,5.92v3.84c2.77,1.1,5.31,2.82,5.31,5.92,0,3.53-2.82,5.56-6.13,6.29H99.78V169.86h35c3.42,0,5.32,3.56,5.32,7.16,0,3.1-2.54,4.74-5.31,5.83Z"/><path class="cls-6" d="M115.82,228c-.82,5.53-7.07,10-14.66,10s-13.84-4.5-14.66-10Z"/><path class="cls-7" d="M135,214.59c-4.55,5.84-9.63,10.7-16.8,12.71-.81.22-1.62-.25-2.42.67H86.5c-.81-.92-1.61-.45-2.42-.67-6-1.7-11.76-6-16.77-12.67l67.73,0ZM64.73,198.46h70.09v3.68H64.73v-3.68Zm0-15.68h70.09v3.69H64.73Z"/><path class="cls-8" d="M58.94,93A5.53,5.53,0,0,1,48,91.12,53.89,53.89,0,0,1,87.73,48a5.52,5.52,0,0,1,2.73,10.69A42.86,42.86,0,0,0,58.94,93Z"/></svg>