<svg id="レイヤー_1" data-name="レイヤー 1" xmlns="http://www.w3.org/2000/svg" viewBox="0 0 200 232.67"><defs><style>.cls-1{fill:#ffcd36;}.cls-2{fill:#f76c71;}.cls-3{fill:#0c5286;}.cls-4{fill:#406b95;}.cls-5{fill:#e8bd67;}</style></defs><title>hire-7</title><polygon class="cls-1" points="14 229.63 14 2 150.58 2 187 38.42 187 229.63 14 229.63"/><polygon class="cls-2" points="79.5 193.91 98.81 213.23 134.22 177.81 127.78 171.38 98.81 200.35 85.94 187.48 79.5 193.91 79.5 193.91"/><polyline class="cls-3" points="64.08 33.87 127.82 33.87 127.82 24.76 64.08 24.76"/><polyline class="cls-4" points="36.76 61.18 164.24 61.18 164.24 52.08 36.76 52.08"/><polyline class="cls-4" points="36.76 79.39 164.24 79.39 164.24 70.29 36.76 70.29"/><polyline class="cls-4" points="36.76 97.61 164.24 97.61 164.24 88.5 36.76 88.5"/><polyline class="cls-4" points="36.76 115.82 164.24 115.82 164.24 106.71 36.76 106.71"/><polyline class="cls-4" points="36.76 134.03 164.24 134.03 164.24 124.92 36.76 124.92"/><polyline class="cls-4" points="36.76 152.24 127.82 152.24 127.82 143.13 36.76 143.13"/><polyline class="cls-5" points="150.58 2 150.58 38.42 187 38.42"/></svg>