<svg id="レイヤー_1" data-name="レイヤー 1" xmlns="http://www.w3.org/2000/svg" viewBox="0 0 200 188.33"><defs><style>.cls-1{fill:#ffcd36;}.cls-2{fill:#3db28b;}</style></defs><title>hire-4</title><path class="cls-1" d="M176.94,166.48c13.18-9.87,21.35-23.56,21.35-38.7,0-30-32.15-54.41-71.8-54.41s-71.8,24.36-71.8,54.41,32.14,54.4,71.8,54.4a89.45,89.45,0,0,0,36.44-7.53L188.05,186Z"/><path class="cls-2" d="M74.4.74C34.75.74,2.6,25.1,2.6,55.14,2.6,70.29,10.78,84,24,93.84L12.84,113.37,38,102a89.49,89.49,0,0,0,36.44,7.54c39.66,0,71.81-24.36,71.81-54.41S114.06.74,74.4.74Z"/></svg>