<svg id="レイヤー_1" data-name="レイヤー 1" xmlns="http://www.w3.org/2000/svg" viewBox="0 0 200 200"><defs><style>.cls-1{fill:#f76c71;}.cls-2{fill:#e85459;}.cls-3{fill:#f15c62;}.cls-4{fill:#90a4ae;}.cls-5{fill:#7b8d96;fill-opacity:0.3;}</style></defs><title>lunch</title><path id="_311537048" data-name=" 311537048" class="cls-1" d="M187.38,102.86c0,47-38.81,85.14-86.69,85.14S14,149.88,14,102.86s38.81-85.14,86.69-85.14S187.38,55.84,187.38,102.86Z"/><path id="_311537456" data-name=" 311537456" class="cls-2" d="M100.69,40.21A62.63,62.63,0,1,1,56.42,58.56a62.42,62.42,0,0,1,44.27-18.35Zm36.95,25.68a52.3,52.3,0,1,0,15.31,37,52,52,0,0,0-15.31-37Z"/><path id="_311537360" data-name=" 311537360" class="cls-3" d="M137.64,65.89a52.3,52.3,0,1,0,15.31,37A52,52,0,0,0,137.64,65.89Z"/><path id="_311537792" data-name=" 311537792" class="cls-4" d="M87.35,97.16c27.89,27.89,36.84,47.61,51.28,56,6,3.48,12.07-3.79,9-9-7.7-13.33-28.76-24.31-56.09-51.64-3.74-3.75,1.16-6-1.72-12.8-2.58-6-29.65-28.22-30.44-27.43S79.06,72.76,77.35,74.47s-20.68-19-22-18.16,19.81,20.4,17.8,22.41S52.29,59.33,51.2,60.42,70.52,81.31,68.86,83C67,84.8,47.9,63.71,47.09,64.53c-1.39,1.39,20.22,26.26,25.7,30s10-1.89,14.56,2.62Z"/><path id="_311537768" data-name=" 311537768" class="cls-4" d="M111.12,91.41c-27.89,27.9-50.72,39.75-57.41,52.75-3.19,6.19,3.79,12.07,9,9,12.09-7,25.52-30,52.85-57.31,3.19-3.18,12.73,6.75,23.6-4.12,13.61-13.61,15.72-28.12,9.82-34-5.51-5.51-20.67-2.32-33.41,10.42-10.22,10.21-1.86,20.62-4.49,23.24Z"/><path id="_311537696" data-name=" 311537696" class="cls-5" d="M148.67,58.76C141.93,52,119.53,60.81,113,74.84c-4.73,10.17,8.43,22.9,18.18,20,13.94-4.12,24.61-29,17.51-36.09Z"/></svg>