<?xml version="1.0" encoding="utf-8"?>
<!-- Generator: Adobe Illustrator 16.0.4, SVG Export Plug-In . SVG Version: 6.00 Build 0)  -->
<!DOCTYPE svg PUBLIC "-//W3C//DTD SVG 1.1//EN" "http://www.w3.org/Graphics/SVG/1.1/DTD/svg11.dtd">
<svg version="1.1" id="レイヤー_1" xmlns="http://www.w3.org/2000/svg" xmlns:xlink="http://www.w3.org/1999/xlink" x="0px"
	 y="0px" width="160px" height="160px" viewBox="0 0 160 160" enable-background="new 0 0 160 160" xml:space="preserve">
<g>
	<g>
		<path fill-rule="evenodd" clip-rule="evenodd" fill="#1559AA" d="M120.155,45.609l-17.847,17.847l0.102-22.384
			c0-6.049-2.154-11.225-6.455-15.527c-4.233-4.235-9.378-6.352-15.427-6.352c-5.981,0-11.124,2.117-15.424,6.352
			c-4.304,4.302-6.454,9.478-6.454,15.527v4.739L41.004,63.456l-0.101-24.199c0-10.956,3.864-20.266,11.595-27.93
			C60.362,3.53,69.707-0.369,80.528-0.369c10.957,0,20.268,3.898,27.932,11.696c7.795,7.664,11.695,16.974,11.695,27.93V45.609z"/>
		<path fill-rule="evenodd" clip-rule="evenodd" fill="#FBD020" d="M144.96,111.955H80.428V63.456h21.881h17.847h12.705
			c7.864,0.269,11.898,4.335,12.1,12.2V111.955z M80.428,111.955v48.499H27.896c-7.259-0.268-11.159-3.967-11.696-11.091l-0.1-1.109
			v-36.299H80.428z"/>
		<path fill-rule="evenodd" clip-rule="evenodd" fill="#003F98" d="M58.65,45.811v17.646H41.004L58.65,45.811z M120.155,45.609
			v17.847h-17.847L120.155,45.609z"/>
		<path fill-rule="evenodd" clip-rule="evenodd" fill="#F9DC62" d="M41.004,63.456H58.65h21.778v48.499H16.1V75.656
			c0.134-4.032,1.209-6.99,3.226-8.873c2.017-2.084,5.008-3.192,8.974-3.327H41.004z"/>
		<path fill-rule="evenodd" clip-rule="evenodd" fill="#DDB612" d="M144.96,111.955v36.299c-0.067,3.965-1.11,6.989-3.127,9.075
			c-1.884,1.813-4.537,2.857-7.964,3.125c-0.34,0-0.706,0-1.111,0h-52.33v-48.499H144.96z"/>
	</g>
	<g>
		<g>
			<path fill-rule="evenodd" clip-rule="evenodd" fill="#4A4A4D" d="M86.074,98.545v0.101c0,0.27,0,0.539,0,0.808v31.761H73.168
				V98.545c0.067-1.748,0.706-3.226,1.917-4.437c1.276-1.277,2.789-1.914,4.537-1.914c1.813,0,3.327,0.637,4.537,1.914
				C85.435,95.387,86.074,96.864,86.074,98.545z"/>
		</g>
	</g>
</g>
</svg>
