<?xml version="1.0" encoding="utf-8"?>
<!-- Generator: Adobe Illustrator 16.0.4, SVG Export Plug-In . SVG Version: 6.00 Build 0)  -->
<!DOCTYPE svg PUBLIC "-//W3C//DTD SVG 1.1//EN" "http://www.w3.org/Graphics/SVG/1.1/DTD/svg11.dtd">
<svg version="1.1" id="レイヤー_1" xmlns="http://www.w3.org/2000/svg" xmlns:xlink="http://www.w3.org/1999/xlink" x="0px"
	 y="0px" width="160px" height="160px" viewBox="0 0 160 160" enable-background="new 0 0 160 160" xml:space="preserve">
<g display="none">
	<g display="inline">
		<path fill-rule="evenodd" clip-rule="evenodd" fill="#1559AA" d="M120.155,45.609l-17.847,17.847l0.102-22.384
			c0-6.049-2.154-11.225-6.455-15.527c-4.233-4.235-9.378-6.352-15.427-6.352c-5.981,0-11.124,2.117-15.424,6.352
			c-4.304,4.302-6.454,9.478-6.454,15.527v4.739L41.004,63.456l-0.101-24.199c0-10.956,3.864-20.266,11.595-27.93
			C60.362,3.53,69.707-0.369,80.528-0.369c10.957,0,20.268,3.898,27.932,11.696c7.795,7.664,11.695,16.974,11.695,27.93V45.609z"/>
		<path fill-rule="evenodd" clip-rule="evenodd" fill="#FBD020" d="M144.96,111.955H80.428V63.456h21.881h17.847h12.705
			c7.864,0.269,11.898,4.335,12.1,12.2V111.955z M80.428,111.955v48.499H27.896c-7.259-0.268-11.159-3.967-11.696-11.091l-0.1-1.109
			v-36.299H80.428z"/>
		<path fill-rule="evenodd" clip-rule="evenodd" fill="#003F98" d="M58.65,45.811v17.646H41.004L58.65,45.811z M120.155,45.609
			v17.847h-17.847L120.155,45.609z"/>
		<path fill-rule="evenodd" clip-rule="evenodd" fill="#F9DC62" d="M41.004,63.456H58.65h21.778v48.499H16.1V75.656
			c0.134-4.032,1.209-6.99,3.226-8.873c2.017-2.084,5.008-3.192,8.974-3.327H41.004z"/>
		<path fill-rule="evenodd" clip-rule="evenodd" fill="#DDB612" d="M144.96,111.955v36.299c-0.067,3.965-1.11,6.989-3.127,9.075
			c-1.884,1.813-4.537,2.857-7.964,3.125c-0.34,0-0.706,0-1.111,0h-52.33v-48.499H144.96z"/>
	</g>
	<g display="inline">
		<g>
			<path fill-rule="evenodd" clip-rule="evenodd" fill="#4A4A4D" d="M86.074,98.545v0.101c0,0.27,0,0.539,0,0.808v31.761H73.168
				V98.545c0.067-1.748,0.706-3.226,1.917-4.437c1.276-1.277,2.789-1.914,4.537-1.914c1.813,0,3.327,0.637,4.537,1.914
				C85.435,95.387,86.074,96.864,86.074,98.545z"/>
		</g>
	</g>
</g>
<g>
	<path fill-rule="evenodd" clip-rule="evenodd" fill="#F6CDB1" d="M23.649,160c0.365-18.598,4.321-35.051,44.667-38.449
		c-0.009-1.973-0.017-16.605-0.022-18.582h12.164h0.572h12.165c-0.003,1.977-0.014,16.609-0.021,18.582
		c40.331,3.394,44.291,19.852,44.665,38.449H23.649L23.649,160z"/>
	<path fill-rule="evenodd" clip-rule="evenodd" fill="#E8A988" d="M93.561,103.852H67.928
		C70.841,113.763,90.656,113.763,93.561,103.852L93.561,103.852z"/>
	<path fill-rule="evenodd" clip-rule="evenodd" fill="#F6CDB1" d="M45.499,58.913c-5.982-0.309-3.614,24.732,3.66,24.902
		c5.863,12.86,16.37,23.795,31.534,23.795c15.175,0,25.835-10.935,31.694-23.795c6.554-0.007,9.149-25.046,3.511-24.902
		c1.505-27.125-7.163-38.696-33.541-38.696C55.981,20.217,43.759,30.789,45.499,58.913L45.499,58.913z"/>
	<path fill-rule="evenodd" clip-rule="evenodd" fill="#FFFFFF" d="M23.649,160c0.365-18.594,4.323-35.046,44.657-38.449L79.401,160
		H23.649L23.649,160z M82.092,160l11.095-38.449c40.316,3.398,44.276,19.855,44.65,38.449H82.092L82.092,160z"/>
	<path fill-rule="evenodd" clip-rule="evenodd" fill="#00B5B5" d="M101.303,122.479c32.749,4.833,36.19,20.253,36.541,37.521H96.857
		L101.303,122.479L101.303,122.479z"/>
	<path fill-rule="evenodd" clip-rule="evenodd" fill="#003F98" d="M60.517,122.441L64.969,160H23.649
		C23.993,142.678,27.457,127.229,60.517,122.441L60.517,122.441z"/>
	<path fill-rule="evenodd" clip-rule="evenodd" fill="#BA915F" d="M80.833,0.768C35.817,1.213,24.066,58.594,47.179,89.457
		c-2.42-10.8-2.827-20.723,0.719-31.173c7.075-20.847,38.817-1.613,51.124-27.635c0.735,11.825,8.75,16.671,14.745,27.492
		c6.36,11.475,4.3,19.073,0.717,31.315C141.84,48.179,122.866,0.354,80.833,0.768L80.833,0.768z"/>
	<path fill-rule="evenodd" clip-rule="evenodd" fill="#BA915F" d="M79.177,160c4.635-3.909,9.342-8.796,13.481-14.245
		c-6.896,5.534-14.987,9.889-23.095,12.425c16.715-9.551,33.101-30.421,26.144-50.229c1.953,11.946-2.688,26.638-13.618,32.249
		c9.334-8.139,15.366-22.588,11.099-35.329c6.824-3.172,12.26-8.823,16.262-15.462c5.186,4.557,8.477,9.669,10.029,15.218
		c6.018,21.531-10.478,45.003-30.099,54.198c6.474-5.646,12.694-11.212,16.984-20.338c-6.73,9.86-12.299,15.789-25.738,21.513
		H79.177L79.177,160z"/>
	<path fill-rule="evenodd" clip-rule="evenodd" fill="#CEA88E" d="M80.745,102.969h0.285h12.165
		c-0.003,1.977-0.014,16.609-0.021,18.582c40.331,3.394,44.291,19.854,44.665,38.449H80.745V102.969L80.745,102.969z"/>
	<path fill-rule="evenodd" clip-rule="evenodd" fill="#C2886A" d="M93.561,103.852H80.745v7.435
		C86.427,111.288,92.109,108.81,93.561,103.852L93.561,103.852z"/>
	<path fill-rule="evenodd" clip-rule="evenodd" fill="#CEA88E" d="M80.745,107.609c15.146-0.024,25.789-10.947,31.642-23.797
		c6.554-0.005,9.149-25.043,3.511-24.901c1.505-27.124-7.163-38.695-33.541-38.695c-0.544,0-1.079,0.006-1.611,0.015V107.609
		L80.745,107.609z"/>
	<path fill-rule="evenodd" clip-rule="evenodd" fill="#E5E5E5" d="M82.091,160l11.097-38.449
		c40.316,3.396,44.276,19.855,44.65,38.449H82.091L82.091,160z"/>
	<path fill-rule="evenodd" clip-rule="evenodd" fill="#003F98" d="M101.305,122.479c32.747,4.833,36.188,20.253,36.539,37.521
		H96.857L101.305,122.479L101.305,122.479z"/>
	<path fill-rule="evenodd" clip-rule="evenodd" fill="#976E3C" d="M80.833,0.768L80.745,0.77v44.251
		c7.216-1.67,13.95-5.221,18.277-14.372c0.735,11.825,8.75,16.671,14.745,27.492c6.36,11.475,4.3,19.072,0.717,31.315
		C141.84,48.179,122.866,0.354,80.833,0.768L80.833,0.768z"/>
	<path fill-rule="evenodd" clip-rule="evenodd" fill="#976E3C" d="M80.745,158.643c4.121-3.658,8.241-8.052,11.913-12.888
		c-3.689,2.958-7.718,5.583-11.913,7.77v-3.565c11.825-10.859,20.321-26.749,14.962-42.006c1.954,11.944-2.688,26.636-13.618,32.247
		c9.334-8.141,15.366-22.589,11.099-35.329c6.824-3.172,12.26-8.823,16.262-15.462c5.186,4.557,8.477,9.669,10.026,15.221
		c6.021,21.528-10.475,45-30.096,54.195c6.474-5.646,12.694-11.212,16.984-20.338c-6.712,9.829-12.27,15.757-25.618,21.46V158.643
		L80.745,158.643z"/>
</g>
</svg>
