<?xml version="1.0" encoding="utf-8"?>
<!-- Generator: Adobe Illustrator 16.0.4, SVG Export Plug-In . SVG Version: 6.00 Build 0)  -->
<!DOCTYPE svg PUBLIC "-//W3C//DTD SVG 1.1//EN" "http://www.w3.org/Graphics/SVG/1.1/DTD/svg11.dtd">
<svg version="1.1" id="レイヤー_1" xmlns="http://www.w3.org/2000/svg" xmlns:xlink="http://www.w3.org/1999/xlink" x="0px"
	 y="0px" width="107.717px" height="107.717px" viewBox="0 0 107.717 107.717" enable-background="new 0 0 107.717 107.717"
	 xml:space="preserve">
<g display="none">
	<path display="inline" fill="#D8BA98" stroke="#D8BA98" stroke-miterlimit="10" d="M23.757,24.869c-0.225,0-0.44-0.133-0.537-0.352
		L8.57-9.293L-6.08,24.518c-0.128,0.295-0.473,0.432-0.769,0.304c-0.295-0.128-0.432-0.472-0.303-0.769L8.034-10.993
		c0.186-0.428,0.886-0.428,1.073,0l15.186,35.046c0.127,0.297-0.008,0.641-0.303,0.769C23.914,24.854,23.834,24.869,23.757,24.869z"
		/>
	<path display="inline" fill="#D8BA98" stroke="#D8BA98" stroke-miterlimit="10" d="M98.522,24.869
		c-0.226,0-0.439-0.133-0.535-0.352L83.336-9.293L68.687,24.518c-0.129,0.295-0.472,0.43-0.77,0.304
		c-0.296-0.128-0.432-0.472-0.305-0.769L82.8-10.993c0.186-0.428,0.889-0.428,1.073,0L99.06,24.053
		c0.129,0.297-0.008,0.641-0.304,0.769C98.681,24.854,98.601,24.869,98.522,24.869z"/>
	<g display="inline">
		<path fill="#1761BA" d="M29.505,50.279c-1.383,0-2.663,0.945-2.885,2.309c-0.004,0.024-0.007,0.05-0.011,0.075
			c-0.241,1.764-1.581,3.164-3.361,3.164h-2.063c-1.383,0-2.663,0.945-2.886,2.309c-0.282,1.736,1.051,3.239,2.736,3.239h24.966
			V50.279H29.505z"/>
		<path fill="#003F98" d="M73.702,58.136c-0.223-1.363-1.504-2.309-2.885-2.309h-2.062c-1.779,0-3.122-1.4-3.363-3.164
			c-0.004-0.025-0.007-0.051-0.012-0.075c-0.223-1.363-1.504-2.309-2.885-2.309H46.001v11.096h24.965
			C72.649,61.375,73.981,59.872,73.702,58.136z"/>
	</g>
	<g display="inline">
		<g>
			<path fill="#003F98" d="M46.02-14.361c2.255,0,4.1,1.914,4.1,4.252v64.79c0,2.338-1.845,4.252-4.1,4.252
				c-2.254,0-4.099-1.914-4.099-4.252v-64.79C41.92-12.448,43.765-14.361,46.02-14.361z"/>
		</g>
		<g>
			<path fill="#1761BA" d="M46.02-14.361v73.293c-2.254,0-4.099-1.914-4.099-4.252v-64.79C41.92-12.448,43.766-14.361,46.02-14.361z
				"/>
		</g>
	</g>
	<path display="inline" fill="#FBD020" d="M24.925,24.285c0,9.033-7.322,16.355-16.355,16.355c-9.033,0-16.355-7.322-16.355-16.355
		H24.925z"/>
	<path display="inline" fill="#E8C018" d="M19.867,24.285c-1.606,7.348-8.141,12.851-15.97,12.851c-2.627,0-5.101-0.635-7.301-1.734
		c2.987,3.215,7.239,5.239,11.974,5.239c9.033,0,16.355-7.322,16.355-16.355L19.867,24.285L19.867,24.285z"/>
	<path display="inline" fill="#FBD020" d="M99.69,24.285c0,9.033-7.321,16.355-16.354,16.355c-9.032,0-16.354-7.322-16.354-16.355
		H99.69z"/>
	<path display="inline" fill="#E8C018" d="M94.633,24.285c-1.604,7.348-8.141,12.851-15.97,12.851c-2.626,0-5.102-0.635-7.301-1.734
		c2.986,3.215,7.24,5.239,11.974,5.239c9.033,0,16.354-7.322,16.354-16.355L94.633,24.285L94.633,24.285z"/>
	<g display="inline">
		<g>
			<path fill="#003F98" d="M85.666-9.761c0,2.254-1.913,4.099-4.252,4.099H10.625c-2.338,0-4.252-1.845-4.252-4.099
				c0-2.254,1.914-4.099,4.252-4.099h70.789C83.753-13.86,85.666-12.016,85.666-9.761z"/>
		</g>
		<g>
			<path fill="#1761BA" d="M85.666-9.761H6.373c0-2.254,1.914-4.099,4.252-4.099h70.789C83.753-13.86,85.666-12.016,85.666-9.761z"
				/>
		</g>
	</g>
	<circle display="inline" fill="#FBD020" cx="45.546" cy="-10.502" r="5.266"/>
	<path display="inline" fill="#E8C018" d="M48.547-14.819c0.594,0.852,0.948,1.883,0.948,3c0,2.909-2.357,5.266-5.266,5.266
		c-1.117,0-2.148-0.354-3.002-0.948c0.952,1.366,2.529,2.265,4.319,2.265c2.908,0,5.266-2.358,5.266-5.266
		C50.812-12.292,49.914-13.869,48.547-14.819z"/>
</g>
<g display="none">
	<g display="inline">
		<path fill="#282D33" d="M21.874,30.968h9.72c0.342,0,0.62-0.275,0.62-0.619c0-0.344-0.278-0.62-0.62-0.62h-9.72
			c-0.345,0-0.62,0.276-0.62,0.62C21.254,30.693,21.529,30.968,21.874,30.968L21.874,30.968z"/>
	</g>
	<path display="inline" fill="#E8C018" d="M14.63,6.066c0-6.688,5.417-12.104,12.103-12.104c6.688,0,12.102,5.416,12.102,12.104
		c0,0.394-0.289,5.987-4.849,11.861c-1.336,1.773-1.115,5.332-1.103,5.332c-1.876,0-3.416,0-5.294,0c-0.574,0-1.147,0-1.718,0
		c-1.875,0-3.444,0-5.318,0c0.01,0,0.255-3.559-1.074-5.332C14.913,12.049,14.63,6.46,14.63,6.066z"/>
	<path display="inline" fill="#FBD020" d="M22.85,21.683c-0.082-1.526-0.456-4.396-1.4-5.651c-4.336-5.585-4.531-10.867-4.532-10.92
		c0-5.797,4.721-10.519,10.523-10.519c5.805,0,10.526,4.722,10.526,10.525c0,0.047-0.199,5.332-4.517,10.894
		c-0.957,1.27-1.344,4.145-1.435,5.671H22.85z"/>
	<g display="inline">
		<g>
			<path fill="#F4DA80" d="M36.265,7.007c-0.523,0-0.947-0.421-0.947-0.944c0-4.734-3.852-8.584-8.584-8.584
				c-0.524,0-0.948-0.423-0.948-0.945c0-0.524,0.424-0.948,0.948-0.948c5.776,0,10.479,4.7,10.479,10.478
				C37.212,6.586,36.788,7.007,36.265,7.007z"/>
		</g>
	</g>
	<g display="inline">
		<g>
			<g>
				<polygon fill="#484F59" points="23.635,24.198 22.063,11.72 22.694,11.531 24.265,24.006 				"/>
			</g>
		</g>
		<g>
			<g>
				<polygon fill="#484F59" points="29.796,24.198 31.367,11.72 30.736,11.531 29.165,24.006 				"/>
			</g>
		</g>
		<g>
			<path fill="#484F59" d="M30.851,13.283c-0.435,0-0.624-0.424-0.759-0.734c-0.058-0.128-0.178-0.397-0.246-0.397
				c-0.066,0-0.186,0.269-0.242,0.397c-0.138,0.31-0.328,0.734-0.762,0.734c-0.434,0-0.621-0.424-0.76-0.734
				c-0.029-0.07-0.08-0.182-0.13-0.27c-0.221,0.41-0.625,1.004-1.118,1.004c-0.434,0-0.623-0.424-0.761-0.734
				c-0.057-0.128-0.177-0.397-0.244-0.397s-0.187,0.269-0.244,0.397c-0.137,0.31-0.326,0.734-0.762,0.734
				c-0.435,0-0.623-0.424-0.759-0.734c-0.058-0.128-0.177-0.397-0.246-0.397c-0.067,0-0.188,0.269-0.245,0.397
				c-0.137,0.31-0.327,0.734-0.761,0.734v-0.567c0.067,0,0.188-0.267,0.245-0.397c0.139-0.308,0.327-0.731,0.762-0.731
				s0.625,0.423,0.761,0.731c0.058,0.13,0.177,0.397,0.245,0.397c0.068,0,0.187-0.267,0.246-0.397
				c0.136-0.308,0.325-0.731,0.759-0.731c0.435,0,0.622,0.423,0.762,0.731c0.055,0.13,0.176,0.397,0.243,0.397
				c0.167,0,0.522-0.458,0.747-0.961c0.046-0.102,0.146-0.167,0.258-0.167c0.434,0,0.623,0.423,0.759,0.731
				c0.059,0.13,0.177,0.397,0.244,0.397c0.068,0,0.188-0.267,0.246-0.397c0.136-0.308,0.324-0.731,0.758-0.731
				c0.435,0,0.624,0.423,0.762,0.731c0.057,0.13,0.175,0.397,0.243,0.397L30.851,13.283L30.851,13.283z"/>
		</g>
	</g>
	<path display="inline" fill="#282D33" d="M32.896,23.326v6.326c0,0.435-0.35,0.791-0.786,0.791H21.369
		c-0.433,0-0.785-0.356-0.785-0.791v-6.326H32.896z"/>
	<g display="inline">
		<path fill="#282D33" d="M33.143,24.555h-12.82c-0.343,0-0.621-0.272-0.621-0.619c0-0.343,0.278-0.621,0.621-0.621h12.82
			c0.343,0,0.622,0.277,0.622,0.621C33.765,24.283,33.486,24.555,33.143,24.555z"/>
	</g>
	<g display="inline">
		<path fill="#484F59" d="M27.475,24.24h-7.112c-0.192,0-0.346-0.153-0.346-0.344c0-0.188,0.154-0.342,0.346-0.342h7.112
			c0.19,0,0.346,0.154,0.346,0.342C27.82,24.087,27.665,24.24,27.475,24.24z"/>
	</g>
	<g display="inline">
		<path fill="#282D33" d="M33.143,26.625h-12.82c-0.343,0-0.621-0.277-0.621-0.62c0-0.341,0.278-0.62,0.621-0.62h12.82
			c0.343,0,0.622,0.278,0.622,0.62C33.765,26.349,33.486,26.625,33.143,26.625z"/>
	</g>
	<g display="inline">
		<path fill="#282D33" d="M33.143,28.694h-12.82c-0.343,0-0.621-0.282-0.621-0.622c0-0.343,0.278-0.621,0.621-0.621h12.82
			c0.343,0,0.622,0.278,0.622,0.621C33.765,28.413,33.486,28.694,33.143,28.694z"/>
	</g>
	<g display="inline">
		<path fill="#484F59" d="M27.475,26.213h-7.112c-0.192,0-0.346-0.151-0.346-0.341c0-0.189,0.154-0.342,0.346-0.342h7.112
			c0.19,0,0.346,0.153,0.346,0.342C27.82,26.062,27.665,26.213,27.475,26.213z"/>
	</g>
	<g display="inline">
		<path fill="#484F59" d="M27.475,28.305h-7.112c-0.192,0-0.346-0.155-0.346-0.344c0-0.191,0.154-0.345,0.346-0.345h7.112
			c0.19,0,0.346,0.154,0.346,0.345C27.82,28.15,27.665,28.305,27.475,28.305z"/>
	</g>
	<rect x="22.261" y="24.561" display="inline" fill="#30363D" width="6.076" height="0.628"/>
	<rect x="22.261" y="26.574" display="inline" fill="#30363D" width="6.076" height="0.632"/>
	<rect x="22.261" y="28.587" display="inline" fill="#30363D" width="6.076" height="0.629"/>
</g>
<path display="none" opacity="0.2" fill="#FFFFFF" enable-background="new    " d="M6.639-2.266C2.755,3.116,1.19,9.682,2.234,16.22
	c2.168,13.549,14.953,22.807,28.505,20.63c6.569-1.049,12.335-4.607,16.248-10.027l0,0c3.891-5.386,5.443-11.938,4.399-18.473
	c-1.052-6.551-4.598-12.312-9.99-16.214c-5.39-3.908-11.969-5.475-18.525-4.427C16.307-11.236,10.539-7.679,6.639-2.266L6.639-2.266
	z"/>
<path display="none" opacity="0.2" fill="#FFFFFF" enable-background="new    " d="M18.735,33.49
	c-5.21-3.776-8.638-9.337-9.65-15.671C8.076,11.499,9.586,5.152,13.339-0.05c3.764-5.221,9.324-8.661,15.655-9.681L29.03-9.74
	c2.462-0.397,4.926-0.404,7.326-0.047c-4.167-1.817-8.766-2.417-13.357-1.683l-0.03,0.007c-6.332,1.024-11.892,4.466-15.661,9.685
	C3.558,3.423,2.046,9.772,3.061,16.09c1.007,6.333,4.433,11.896,9.645,15.668c3.184,2.305,6.796,3.767,10.574,4.324
	C21.695,35.392,20.169,34.525,18.735,33.49z"/>
<path fill="#003F98" d="M94.304,61.378c4.716-4.829,7.717-10.898,8.688-17.446c0.244-1.665,0.361-3.358,0.34-5.074
	c-0.092-8.47-3.502-16.419-9.588-22.337c-4.83-4.694-10.891-7.685-17.418-8.649c-1.662-0.245-3.352-0.362-5.061-0.343
	C55.499,7.72,42.522,19.431,40.278,34.557c-0.243,1.646-0.359,3.331-0.34,5.045c0.092,8.472,3.51,16.427,9.593,22.347
	c4.827,4.696,10.881,7.68,17.407,8.645c1.663,0.247,3.355,0.364,5.065,0.345C80.454,70.839,88.387,67.441,94.304,61.378
	 M54.933,56.406c-4.621-4.497-7.185-10.484-7.266-16.899c-0.015-1.297,0.073-2.57,0.257-3.814
	c1.693-11.43,11.512-20.296,23.427-20.429c1.293-0.015,2.574,0.073,3.828,0.26c4.937,0.731,9.508,2.985,13.165,6.546
	c4.61,4.488,7.183,10.471,7.261,16.877c0.014,1.299-0.074,2.584-0.261,3.845c-0.733,4.947-2.994,9.522-6.573,13.182
	c-4.486,4.593-10.465,7.158-16.857,7.231c-1.294,0.017-2.571-0.07-3.827-0.257C63.157,62.218,58.591,59.968,54.933,56.406"/>
<g>
	<line fill="none" x1="44.701" y1="40.05" x2="45.25" y2="39.542"/>
	<path fill="#1761BA" d="M45.993,39.527c-0.015-1.388,0.081-2.749,0.278-4.078c1.81-12.23,12.31-21.718,25.059-21.858
		c1.384-0.015,2.753,0.079,4.095,0.277c5.283,0.783,10.173,3.192,14.083,7.002c4.931,4.799,7.683,11.204,7.769,18.059l0.008,0.748
		l4.087-0.042l-0.024-0.82v0.013c-0.105-7.926-3.303-15.344-8.987-20.88c-4.527-4.403-10.21-7.205-16.334-8.113
		c-1.554-0.229-3.136-0.338-4.735-0.319C56.513,9.69,44.345,20.668,42.243,34.847c-0.228,1.544-0.337,3.122-0.318,4.73l0.009,0.748
		l4.125-0.042"/>
	<path fill="#1761BA" d="M99.847,38.845v0.01"/>
</g>
<path fill="#003F98" d="M49.266,67.674c1.65-1.642,3.3-3.28,4.958-4.936c0.752-0.771,1.142-1.771,1.119-2.752
	c-0.711-0.567-1.402-1.175-2.06-1.823c-0.69-0.67-1.34-1.369-1.947-2.104c-0.973,0.01-1.971,0.414-2.72,1.179
	c-1.658,1.649-3.32,3.302-4.992,4.964c-1.562,1.598-1,3.451,0.616,4.983l0.001,0.009C45.845,68.751,47.72,69.269,49.266,67.674z"/>
<g>
	
		<rect x="22.482" y="57.408" transform="matrix(0.7071 0.7071 -0.7071 0.7071 66.0011 2.5526)" fill="#1761BA" width="14.874" height="47.083"/>
	
		<rect x="36.741" y="63.313" transform="matrix(0.7072 0.7071 -0.7071 0.7072 60.0904 -11.7074)" fill="#FBD020" width="14.875" height="6.751"/>
	
		<rect x="26.443" y="65.8" transform="matrix(0.707 0.7072 -0.7072 0.707 69.6286 3.8545)" fill="#003F98" width="7.438" height="40.331"/>
	
		<rect x="43.09" y="65.944" transform="matrix(0.7072 0.707 -0.707 0.7072 62.7181 -12.7971)" fill="#E8C018" width="7.438" height="6.751"/>
</g>
</svg>
