<?xml version="1.0" encoding="utf-8"?>
<!-- Generator: Adobe Illustrator 16.0.4, SVG Export Plug-In . SVG Version: 6.00 Build 0)  -->
<!DOCTYPE svg PUBLIC "-//W3C//DTD SVG 1.1//EN" "http://www.w3.org/Graphics/SVG/1.1/DTD/svg11.dtd">
<svg version="1.1" id="レイヤー_1" xmlns="http://www.w3.org/2000/svg" xmlns:xlink="http://www.w3.org/1999/xlink" x="0px"
	 y="0px" width="107.717px" height="107.717px" viewBox="-7.858 -29.858 107.717 107.717"
	 enable-background="new -7.858 -29.858 107.717 107.717" xml:space="preserve">
<path fill="#D8BA98" stroke="#D8BA98" stroke-miterlimit="10" d="M23.757,24.869c-0.225,0-0.44-0.133-0.537-0.352L8.57-9.293
	L-6.08,24.518c-0.128,0.295-0.473,0.432-0.769,0.304c-0.295-0.128-0.432-0.472-0.303-0.769L8.034-10.993
	c0.186-0.428,0.886-0.428,1.073,0l15.186,35.046c0.127,0.297-0.008,0.641-0.303,0.769C23.914,24.854,23.834,24.869,23.757,24.869z"
	/>
<path fill="#D8BA98" stroke="#D8BA98" stroke-miterlimit="10" d="M98.522,24.869c-0.225,0-0.439-0.133-0.535-0.352L83.336-9.293
	l-14.65,33.811c-0.128,0.295-0.471,0.43-0.769,0.304c-0.296-0.128-0.432-0.472-0.304-0.769L82.8-10.993
	c0.186-0.428,0.888-0.428,1.073,0L99.06,24.053c0.128,0.297-0.008,0.641-0.304,0.769C98.68,24.854,98.601,24.869,98.522,24.869z"/>
<g>
	<path fill="#1761BA" d="M29.505,50.279c-1.383,0-2.663,0.945-2.885,2.309c-0.004,0.024-0.007,0.05-0.011,0.075
		c-0.241,1.764-1.581,3.164-3.361,3.164h-2.063c-1.383,0-2.663,0.945-2.886,2.309c-0.282,1.736,1.051,3.239,2.736,3.239h24.966
		V50.279H29.505z"/>
	<path fill="#003F98" d="M73.702,58.136c-0.223-1.363-1.504-2.309-2.885-2.309h-2.062c-1.78,0-3.122-1.4-3.363-3.164
		c-0.004-0.025-0.007-0.051-0.012-0.075c-0.223-1.363-1.504-2.309-2.885-2.309H46.001v11.096h24.965
		C72.65,61.375,73.982,59.872,73.702,58.136z"/>
</g>
<g>
	<g>
		<path fill="#003F98" d="M46.02-14.361c2.255,0,4.1,1.914,4.1,4.252V54.68c0,2.339-1.845,4.252-4.1,4.252
			c-2.254,0-4.099-1.913-4.099-4.252v-64.789C41.92-12.448,43.765-14.361,46.02-14.361z"/>
	</g>
	<g>
		<path fill="#1761BA" d="M46.02-14.361v73.293c-2.254,0-4.099-1.914-4.099-4.252v-64.789C41.92-12.448,43.766-14.361,46.02-14.361z
			"/>
	</g>
</g>
<path fill="#FBD020" d="M24.925,24.285c0,9.033-7.322,16.355-16.355,16.355S-7.785,33.318-7.785,24.285H24.925z"/>
<path fill="#E8C018" d="M19.867,24.285c-1.606,7.348-8.141,12.851-15.97,12.851c-2.627,0-5.101-0.635-7.301-1.734
	c2.987,3.215,7.239,5.239,11.974,5.239c9.033,0,16.355-7.322,16.355-16.355H19.867z"/>
<path fill="#FBD020" d="M99.691,24.285c0,9.033-7.322,16.355-16.355,16.355c-9.032,0-16.354-7.322-16.354-16.355H99.691z"/>
<path fill="#E8C018" d="M94.633,24.285c-1.605,7.348-8.141,12.851-15.97,12.851c-2.626,0-5.101-0.635-7.301-1.734
	c2.986,3.215,7.24,5.239,11.974,5.239c9.033,0,16.355-7.322,16.355-16.355H94.633z"/>
<g>
	<g>
		<path fill="#003F98" d="M85.666-9.761c0,2.254-1.913,4.099-4.252,4.099H10.625c-2.338,0-4.252-1.845-4.252-4.099
			s1.914-4.099,4.252-4.099h70.789C83.753-13.86,85.666-12.016,85.666-9.761z"/>
	</g>
	<g>
		<path fill="#1761BA" d="M85.666-9.761H6.373c0-2.254,1.914-4.099,4.252-4.099h70.789C83.753-13.86,85.666-12.016,85.666-9.761z"/>
	</g>
</g>
<circle fill="#FBD020" cx="45.546" cy="-10.502" r="5.266"/>
<path fill="#E8C018" d="M48.547-14.819c0.594,0.852,0.948,1.883,0.948,3c0,2.909-2.357,5.266-5.266,5.266
	c-1.117,0-2.148-0.354-3.002-0.948c0.952,1.366,2.529,2.265,4.319,2.265c2.908,0,5.266-2.358,5.266-5.266
	C50.812-12.292,49.914-13.869,48.547-14.819z"/>
<g display="none">
	<g display="inline">
		<path fill="#282D33" d="M25.956,50.84h16.069c0.566,0,1.026-0.456,1.026-1.025c0-0.565-0.46-1.023-1.026-1.023H25.956
			c-0.569,0-1.026,0.458-1.026,1.023C24.93,50.384,25.387,50.84,25.956,50.84L25.956,50.84z"/>
	</g>
	<path display="inline" fill="#E8C018" d="M13.981,9.669c0-11.058,8.955-20.012,20.01-20.012c11.057,0,20.008,8.954,20.008,20.012
		c0,0.651-0.479,9.898-8.017,19.608c-2.208,2.932-1.843,8.815-1.822,8.815c-3.102,0-5.647,0-8.754,0c-0.948,0-1.897,0-2.841,0
		c-3.1,0-5.694,0-8.793,0c0.017,0,0.423-5.883-1.775-8.815C14.448,19.561,13.981,10.32,13.981,9.669z"/>
	<path display="inline" fill="#FBD020" d="M27.571,35.488c-0.136-2.522-0.754-7.267-2.314-9.343
		c-7.17-9.234-7.492-17.967-7.493-18.054c0-9.584,7.806-17.39,17.397-17.39c9.598,0,17.403,7.806,17.403,17.4
		c0,0.077-0.33,8.816-7.468,18.011c-1.583,2.098-2.222,6.851-2.371,9.375H27.571z"/>
	<g display="inline">
		<g>
			<path fill="#F4DA80" d="M49.748,11.225c-0.864,0-1.566-0.697-1.566-1.56c0-7.828-6.367-14.192-14.191-14.192
				c-0.867,0-1.567-0.699-1.567-1.562c0-0.868,0.7-1.569,1.567-1.569c9.55,0,17.324,7.771,17.324,17.323
				C51.314,10.528,50.613,11.225,49.748,11.225z"/>
		</g>
	</g>
	<g display="inline">
		<g>
			<g>
				<polygon fill="#484F59" points="28.868,39.646 26.269,19.017 27.312,18.704 29.911,39.331 				"/>
			</g>
		</g>
		<g>
			<g>
				<polygon fill="#484F59" points="39.054,39.646 41.651,19.017 40.607,18.704 38.01,39.331 				"/>
			</g>
		</g>
		<g>
			<path fill="#484F59" d="M40.798,21.601c-0.718,0-1.03-0.702-1.255-1.213c-0.095-0.213-0.292-0.657-0.405-0.657
				c-0.109,0-0.308,0.444-0.401,0.657c-0.228,0.511-0.542,1.213-1.26,1.213s-1.027-0.702-1.257-1.213
				c-0.047-0.116-0.131-0.302-0.214-0.447c-0.364,0.678-1.032,1.66-1.848,1.66c-0.718,0-1.03-0.702-1.257-1.213
				c-0.094-0.213-0.293-0.657-0.404-0.657c-0.111,0-0.31,0.444-0.403,0.657c-0.227,0.511-0.538,1.213-1.258,1.213
				c-0.719,0-1.031-0.702-1.256-1.213c-0.096-0.213-0.292-0.657-0.407-0.657c-0.111,0-0.311,0.444-0.405,0.657
				c-0.227,0.511-0.54,1.213-1.258,1.213v-0.937c0.111,0,0.312-0.441,0.405-0.656c0.229-0.511,0.54-1.21,1.259-1.21
				s1.032,0.699,1.258,1.21c0.096,0.214,0.293,0.656,0.405,0.656s0.309-0.441,0.405-0.656c0.226-0.511,0.538-1.21,1.256-1.21
				c0.719,0,1.029,0.699,1.258,1.21c0.092,0.214,0.291,0.656,0.403,0.656c0.275,0,0.863-0.757,1.235-1.589
				c0.076-0.168,0.242-0.276,0.426-0.276c0.718,0,1.031,0.699,1.254,1.21c0.098,0.214,0.293,0.656,0.404,0.656
				c0.113,0,0.31-0.441,0.406-0.656c0.225-0.511,0.536-1.21,1.255-1.21c0.718,0,1.031,0.699,1.258,1.21
				c0.095,0.214,0.291,0.656,0.402,0.656V21.601z"/>
		</g>
	</g>
	<path display="inline" fill="#282D33" d="M44.18,38.206v10.457c0,0.719-0.58,1.307-1.3,1.307H25.122
		c-0.715,0-1.298-0.588-1.298-1.307V38.206H44.18z"/>
	<g display="inline">
		<path fill="#282D33" d="M44.588,40.236H23.392c-0.566,0-1.025-0.45-1.025-1.021c0-0.569,0.459-1.027,1.025-1.027h21.196
			c0.567,0,1.027,0.458,1.027,1.027C45.615,39.786,45.155,40.236,44.588,40.236z"/>
	</g>
	<g display="inline">
		<path fill="#484F59" d="M35.216,39.716H23.458c-0.317,0-0.571-0.252-0.571-0.569c0-0.312,0.254-0.566,0.571-0.566h11.758
			c0.314,0,0.572,0.255,0.572,0.566C35.788,39.464,35.53,39.716,35.216,39.716z"/>
	</g>
	<g display="inline">
		<path fill="#282D33" d="M44.588,43.658H23.392c-0.566,0-1.025-0.455-1.025-1.024c0-0.563,0.459-1.023,1.025-1.023h21.196
			c0.567,0,1.027,0.46,1.027,1.023C45.615,43.203,45.155,43.658,44.588,43.658z"/>
	</g>
	<g display="inline">
		<path fill="#282D33" d="M44.588,47.079H23.392c-0.566,0-1.025-0.464-1.025-1.027c0-0.566,0.459-1.027,1.025-1.027h21.196
			c0.567,0,1.027,0.461,1.027,1.027C45.615,46.615,45.155,47.079,44.588,47.079z"/>
	</g>
	<g display="inline">
		<path fill="#484F59" d="M35.216,42.978H23.458c-0.317,0-0.571-0.251-0.571-0.565c0-0.313,0.254-0.565,0.571-0.565h11.758
			c0.314,0,0.572,0.252,0.572,0.565C35.788,42.727,35.53,42.978,35.216,42.978z"/>
	</g>
	<g display="inline">
		<path fill="#484F59" d="M35.216,46.437H23.458c-0.317,0-0.571-0.256-0.571-0.567c0-0.316,0.254-0.569,0.571-0.569h11.758
			c0.314,0,0.572,0.253,0.572,0.569C35.788,46.181,35.53,46.437,35.216,46.437z"/>
	</g>
	<rect x="26.596" y="40.247" display="inline" fill="#30363D" width="10.045" height="1.04"/>
	<rect x="26.596" y="43.575" display="inline" fill="#30363D" width="10.045" height="1.043"/>
	<rect x="26.596" y="46.902" display="inline" fill="#30363D" width="10.045" height="1.041"/>
</g>
<g display="none">
	<g display="inline">
		<path fill="none" d="M64.453,42.15"/>
	</g>
	<g display="inline">
		<path fill="#003F98" d="M59.109-13.819c-9.145-6.616-20.305-9.283-31.424-7.498C16.539-19.54,6.753-13.506,0.134-4.331
			C-6.444,4.807-9.097,15.949-7.32,27.03c3.679,22.978,25.37,38.688,48.35,35c11.151-1.777,20.942-7.822,27.564-16.996
			c6.587-9.135,9.226-20.265,7.453-31.351C74.264,2.567,68.254-7.203,59.109-13.819z M62.198,40.414
			c-5.395,7.481-13.354,12.382-22.416,13.84C21.087,57.25,3.451,44.477,0.466,25.789C-0.977,16.769,1.18,7.713,6.539,0.287
			c5.381-7.468,13.337-12.374,22.389-13.826c9.047-1.45,18.121,0.712,25.557,6.107c7.439,5.379,12.335,13.329,13.784,22.363
			C69.707,23.939,67.562,32.988,62.198,40.414z"/>
		<path opacity="0.2" fill="#FFFFFF" d="M6.633,0.355c-5.34,7.399-7.49,16.426-6.056,25.415
			c2.98,18.627,20.558,31.354,39.188,28.362c9.031-1.441,16.959-6.334,22.338-13.785l0,0c5.348-7.405,7.482-16.412,6.048-25.396
			C66.706,5.943,61.83-1.976,54.417-7.34c-7.411-5.374-16.456-7.527-25.469-6.087C19.924-11.978,11.994-7.085,6.633,0.355
			L6.633,0.355z"/>
		<path opacity="0.2" fill="#FFFFFF" d="M23.262,49.513c-7.163-5.191-11.875-12.836-13.267-21.543
			c-1.388-8.689,0.689-17.415,5.849-24.566C21.02-3.775,28.664-8.503,37.367-9.907l0.049-0.012
			c3.385-0.545,6.772-0.555,10.072-0.065c-5.729-2.499-12.052-3.323-18.363-2.313l-0.042,0.01
			c-8.706,1.408-16.349,6.139-21.53,13.314c-5.155,7.15-7.235,15.879-5.839,24.565c1.386,8.706,6.095,16.354,13.26,21.541
			c4.378,3.169,9.344,5.179,14.537,5.944C27.333,52.127,25.235,50.937,23.262,49.513z"/>
		<path fill="#1761BA" d="M40.092,56.184C20.337,59.351,1.689,45.854-1.465,26.098C-2.989,16.562-0.711,6.992,4.954-0.854
			c5.689-7.89,14.094-13.079,23.665-14.615l0,0l-0.556-3.495c-0.027,0.003-0.051,0.012-0.076,0.013
			C17.5-17.253,8.304-11.566,2.077-2.938C-4.132,5.678-6.635,16.188-4.964,26.65c3.471,21.68,23.93,36.504,45.618,33.024
			l-0.555-3.497L40.092,56.184z"/>
	</g>
	<path display="inline" fill="#003F98" d="M77.549,45.048c-2.564-1.914-5.129-3.828-7.714-5.751
		c-1.199-0.865-2.639-1.191-3.968-0.966c-0.628,1.083-1.314,2.145-2.061,3.17c-0.775,1.073-1.594,2.099-2.469,3.074
		c0.208,1.322,0.959,2.593,2.149,3.461c2.576,1.922,5.161,3.849,7.756,5.784c2.487,1.805,4.897,0.668,6.651-1.838l0.015-0.005
		C79.703,49.483,80.028,46.828,77.549,45.048z"/>
	<polygon display="inline" fill="#1761BA" points="99.661,57.536 89.547,71.5 68.922,56.032 79.031,42.074 	"/>
	<polygon display="inline" fill="#003F98" points="98.857,58.655 94.674,64.423 74.049,48.955 78.224,43.187 	"/>
	<polygon display="inline" fill="#E5E8EC" points="82.387,44.496 72.272,58.458 68.922,56.032 79.031,42.074 	"/>
	
		<rect x="73.97" y="46.424" transform="matrix(0.5869 -0.8096 0.8096 0.5869 -6.6102 82.7358)" display="inline" fill="#CDD5D7" width="7.617" height="2.845"/>
</g>
</svg>
