<?xml version="1.0" encoding="utf-8"?>
<!-- Generator: Adobe Illustrator 16.0.4, SVG Export Plug-In . SVG Version: 6.00 Build 0)  -->
<!DOCTYPE svg PUBLIC "-//W3C//DTD SVG 1.1//EN" "http://www.w3.org/Graphics/SVG/1.1/DTD/svg11.dtd">
<svg version="1.1" id="レイヤー_1" xmlns="http://www.w3.org/2000/svg" xmlns:xlink="http://www.w3.org/1999/xlink" x="0px"
	 y="0px" width="107.717px" height="107.717px" viewBox="0 0 107.717 107.717" enable-background="new 0 0 107.717 107.717"
	 xml:space="preserve">
<path fill="#F4D4C3" d="M0.385,97.59c0.088-12.392-1.608-24.64,24.668-26.854c-0.004-1.09-0.01-9.164-0.012-10.254h6.708h0.32h6.707
	c-0.002,1.09-0.007,9.164-0.011,10.254C65.04,72.947,63.342,85.198,63.435,97.59H0.385L0.385,97.59z"/>
<path fill="#E8A988" d="M38.982,60.972H24.838C26.442,66.444,37.376,66.444,38.982,60.972L38.982,60.972z"/>
<path fill="#DEDEDE" d="M0.385,97.59c0.088-12.392-1.608-24.64,24.668-26.854v-0.352c2.104,0.161,4.422,0.251,6.857,0.251
	c2.432,0,4.75-0.09,6.854-0.251v0.352c26.275,2.212,24.577,14.463,24.67,26.854H0.385L0.385,97.59z"/>
<rect x="31.91" y="69.849" fill="#C4C4C4" width="6.115" height="26.01"/>
<path fill="#DD5345" d="M0.385,97.59c0.088-12.392-1.608-24.64,24.668-26.854l6.857,24.979l6.854-24.979
	c26.275,2.212,24.577,14.463,24.67,26.854H0.385L0.385,97.59z"/>
<path fill="#FFFFFF" d="M38.765,69.259c-4.336,0.784-9.378,0.787-13.713,0l0.015,8.192l6.842-7.025l6.842,7.025L38.765,69.259
	L38.765,69.259z"/>
<path fill="#FCE1D0" d="M12.461,36.176c-2.331-0.253-1.993,13.645,2.023,13.736c3.233,7.098,9.026,13.133,17.398,13.133
	c8.369,0,14.251-6.035,17.483-13.133c3.618-0.002,4.32-13.977,1.935-13.736C52.135,21.21,51.6,11.853,32,11.853
	C12.398,11.853,11.502,20.659,12.461,36.176L12.461,36.176z"/>
<path fill="#CE413A" d="M31.91,95.712l0.001,0.004l6.854-24.979C65.04,72.948,63.341,85.2,63.435,97.591H31.91V95.712L31.91,95.712z
	"/>
<path fill="#EDEDED" d="M38.765,69.259c-2.167,0.393-4.511,0.59-6.855,0.59v0.58l6.841,7.022L38.765,69.259L38.765,69.259z"/>
<path fill="#563D06" d="M76.646,42.795c11.983,0,21.701,13.628,21.701,30.445c0,3.274-0.373,6.43-1.057,9.387H55.998
	c-0.683-2.957-1.052-6.112-1.052-9.387C54.946,56.424,64.662,42.795,76.646,42.795L76.646,42.795z"/>
<path fill="#F4DFD4" d="M65.875,97.717c0.002-10.991-19.345-21.173,4.162-23.149c-0.005-1.066-0.011-8.979-0.013-10.043h6.567h0.314
	h6.567c-0.002,1.063-0.008,8.977-0.012,10.043c23.499,1.974,4.157,12.152,4.161,23.149h-41.75H65.875z"/>
<path fill="#E8A988" d="M83.677,65.002H69.819C71.397,70.358,82.104,70.358,83.677,65.002L83.677,65.002z"/>
<path fill="#CCCCCC" d="M65.875,97.717c0.002-10.991-19.345-21.17,4.157-23.149l6.719,5.279l6.719-5.279
	c23.493,1.976,4.151,12.154,4.155,23.149h-41.75H65.875z"/>
<path fill="#0E55AA" d="M45.875,97.717c0.002-10.991,0.655-21.17,24.157-23.149l4.937,23.149H45.875L45.875,97.717z M78.534,97.717
	l4.936-23.149c23.493,1.976,24.151,12.154,24.155,23.149H78.534L78.534,97.717z"/>
<polygon fill="#FFFFFF" points="76.813,78.331 83.47,71.751 85.171,74.724 83.435,86.679 76.813,81.251 70.089,86.679 
	68.354,74.724 70.039,71.751 "/>
<path fill="#064A8E" d="M78.534,97.717l4.936-23.149c23.493,1.976,24.151,12.154,24.155,23.149H78.534L78.534,97.717z"/>
<polygon fill="#DCDCDC" points="76.813,78.331 83.47,71.751 85.171,74.724 83.435,86.679 76.813,81.25 76.75,81.301 76.75,78.271 
	"/>
<path d="M47.546,41.653c0.027-3.423,0.576-5.617,3.745-5.478c1.011-16.415-0.638-24.323-19.403-24.323
	c-18.783,0-20.443,7.876-19.428,24.323c3.164-0.139,3.713,2.054,3.743,5.478l3.473-17.473l9.175,9.051l-0.701-5.544l9.295,8.135
	l-1.84-8.221l8.593,9.296l-2.284-11.176L47.546,41.653L47.546,41.653z"/>
<path fill="#563D06" d="M76.751,14.346c12.579,0,22.775,10.42,22.775,23.271c0,12.848-10.196,23.268-22.775,23.268
	s-22.774-10.42-22.774-23.268C53.977,24.767,64.172,14.346,76.751,14.346L76.751,14.346z"/>
<path fill="#FCE9DE" d="M57.702,40.717c-3.23-0.17-1.953,13.366,1.979,13.455c3.168,6.955,8.844,12.861,17.043,12.861
	c8.197,0,13.961-5.906,17.125-12.861c3.543-0.002,4.942-13.534,1.896-13.455L76.563,27.658L57.702,40.717L57.702,40.717z"/>
</svg>
